<svg xmlns="http://www.w3.org/2000/svg" viewBox="0 0 512 512">
  <defs>
    <linearGradient id="grad1" x1="0%" y1="0%" x2="100%" y2="100%">
      <stop offset="0%" style="stop-color:#ff9933;stop-opacity:1" />
      <stop offset="100%" style="stop-color:#00e5ff;stop-opacity:1" />
    </linearGradient>
    <filter id="glow" x="-50%" y="-50%" width="200%" height="200%">
      <feGaussianBlur stdDeviation="15" result="coloredBlur"/>
      <feMerge>
        <feMergeNode in="coloredBlur"/>
        <feMergeNode in="SourceGraphic"/>
      </feMerge>
    </filter>
  </defs>
  
  <circle cx="256" cy="256" r="240" fill="#000" />
  <circle cx="256" cy="256" r="220" stroke="url(#grad1)" stroke-width="15" fill="none" filter="url(#glow)" />
  
  <g transform="translate(106, 106) scale(0.6)">
    <path fill="url(#grad1)" d="M256 0c141.4 0 256 114.6 256 256S397.4 512 256 512 0 397.4 0 256 114.6 0 256 0zm0 64C149.9 64 64 149.9 64 256s85.9 192 192 192 192-85.9 192-192S362.1 64 256 64zM240 160h32v80h80v32h-80v80h-32v-80h-80v-32h80v-80z"/>
  </g>
  
  <text x="50%" y="85%" font-family="Arial, sans-serif" font-size="60" text-anchor="middle" fill="white" font-weight="bold" letter-spacing="4" filter="url(#glow)">CONNECT</text>
</svg>
